<svg width="20" height="20" viewBox="0 0 20 20" fill="none" xmlns="http://www.w3.org/2000/svg">
<path d="M1.75 10.2849C1.75 8.72877 1.75 7.95073 1.96696 7.23843C2.12192 6.7297 2.35705 6.24894 2.66349 5.81429C3.09254 5.20572 3.70669 4.72805 4.93499 3.7727V3.7727C6.83933 2.29155 7.79151 1.55097 8.85347 1.30079C9.6075 1.12315 10.3925 1.12315 11.1465 1.30079C12.2085 1.55097 13.1607 2.29155 15.065 3.7727V3.7727C16.2933 4.72805 16.9075 5.20572 17.3365 5.81429C17.6429 6.24894 17.8781 6.7297 18.033 7.23843C18.25 7.95073 18.25 8.72877 18.25 10.2849V16.3333C18.25 16.8195 18.0568 17.2858 17.713 17.6296C17.3692 17.9734 16.9029 18.1666 16.4167 18.1666H3.58333C3.0971 18.1666 2.63079 17.9734 2.28697 17.6296C1.94315 17.2858 1.75 16.8195 1.75 16.3333V10.2849Z" stroke="white" stroke-width="2" stroke-linecap="round" stroke-linejoin="round"/>
</svg>
