<svg width="19" height="24" viewBox="0 0 19 24" fill="none" xmlns="http://www.w3.org/2000/svg">
<path d="M14.6552 10.7587L13 9.10352H6.37934L5.13796 10.3449V11.1725L3.89658 12.0001L3.06899 12.8277L2.24141 14.069L1.82761 15.3104L1.41382 17.3794L2.6552 19.4483L5.13796 21.5173L8.44831 22.3449L12.1724 21.9311L14.6552 21.1035L16.3104 20.2759C16.7242 20.0001 17.6345 19.3656 17.9656 19.0346C18.2966 18.7035 18.1035 17.7932 17.9656 17.3794V16.138L17.138 14.4828L15.8966 12.4139L14.6552 10.7587Z" fill="#F5FBFF"/>
<path d="M13.4539 14.8965L13.823 15.4675C14.2995 16.2048 14.544 17.0681 14.5247 17.9458V17.9458" stroke="#E42168"/>
<path d="M13.5414 5.37931C13.5414 8.0778 11.7119 10.0586 9.68967 10.0586C7.66747 10.0586 5.83794 8.0778 5.83794 5.37931C5.83794 2.68083 7.66747 0.7 9.68967 0.7C11.7119 0.7 13.5414 2.68083 13.5414 5.37931Z" fill="#F5FBFF" stroke="#48475A" stroke-width="1.4"/>
<path d="M5.55173 9.93115L3.20865 12.2742C1.79448 13.6884 1 15.6064 1 17.6064V17.6064C1 18.9844 1.79252 20.2396 3.03668 20.832L5.00047 21.7672C7.96701 23.1798 11.4123 23.1798 14.3789 21.7672L16.0089 20.991C17.4371 20.3109 18.2993 18.8217 18.178 17.2445V17.2445C18.0403 15.4546 17.3099 13.7617 16.1024 12.4334L13.8276 9.93115" stroke="#48475A" stroke-width="1.4"/>
</svg>
