<svg width="27" height="27" viewBox="0 0 27 27" fill="none" xmlns="http://www.w3.org/2000/svg">
<rect x="2.25" y="3.375" width="22.5" height="15.75" fill="#F5FBFF"/>
<path d="M5.625 19.125H4.5C3.90326 19.125 3.33097 18.8879 2.90901 18.466C2.48705 18.044 2.25 17.4717 2.25 16.875V5.625C2.25 5.02826 2.48705 4.45597 2.90901 4.03401C3.33097 3.61205 3.90326 3.375 4.5 3.375H22.5C23.0967 3.375 23.669 3.61205 24.091 4.03401C24.5129 4.45597 24.75 5.02826 24.75 5.625V16.875C24.75 17.4717 24.5129 18.044 24.091 18.466C23.669 18.8879 23.0967 19.125 22.5 19.125H21.375" stroke="#48475A" stroke-width="1.4" stroke-linecap="round" stroke-linejoin="round"/>
<path d="M13.5 16.875L19.125 23.625H7.875L13.5 16.875Z" stroke="#E42168" stroke-width="1.4" stroke-linecap="round" stroke-linejoin="round"/>
</svg>
